<svg id="Слой_1" data-name="Слой 1" xmlns="http://www.w3.org/2000/svg" viewBox="0 0 60 60"><defs><style>.cls-1{fill:#5f92cd;}.cls-2{fill:#335d80;}.cls-3{fill:#fff;}.cls-4{fill:#294c60;}</style></defs><title>cogc-02</title><circle class="cls-1" cx="30" cy="30" r="30"/><path class="cls-2" d="M282.24,424.19H289v1.34h-6.75v-1.34ZM291,411.46l3.11,5.55-1.17.65-3.11-5.55Z" transform="translate(-267.64 -391.56)"/><path class="cls-3" d="M288.17,410.78a4,4,0,1,1,4-4,4,4,0,0,1-4,4h0Zm0-6.61a2.63,2.63,0,1,0,2.63,2.63A2.63,2.63,0,0,0,288.17,404.17Z" transform="translate(-267.64 -391.56)"/><g id="Icon"><ellipse class="cls-4" cx="30.28" cy="33.68" rx="6.37" ry="6.25"/><path class="cls-4" d="M303.39,433.32h-11a2.74,2.74,0,0,0-2.72,2.68v2.68h16.42V436A2.77,2.77,0,0,0,303.39,433.32Z" transform="translate(-267.64 -391.56)"/><ellipse class="cls-4" cx="30.28" cy="33.68" rx="6.37" ry="6.25"/><path class="cls-4" d="M303.39,433.32h-11a2.74,2.74,0,0,0-2.72,2.68v2.68h16.42V436A2.77,2.77,0,0,0,303.39,433.32Z" transform="translate(-267.64 -391.56)"/></g><path class="cls-2" d="M306.33,424.19h6.75v1.34h-6.75v-1.34Zm-1.11-12.46,1.13,0.71L303,417.83l-1.13-.71Z" transform="translate(-267.64 -391.56)"/><path class="cls-3" d="M311.28,409.89H302.4l4.44-7Zm-6.44-1.34h4l-2-3.14-2,3.14h0Zm-25.16,19.66h-6.77v-6.77h6.77v6.77h0Zm-5.44-1.33h4.09v-4.09h-4.09v4.09h0Zm47.33-5.67,0.95,0.94-6.44,6.48-0.95-.94Z" transform="translate(-267.64 -391.56)"/><path class="cls-3" d="M316.35,421.18l6.18,6.4-1,.93-6.18-6.4Z" transform="translate(-267.64 -391.56)"/></svg>