<svg id="Слой_1" data-name="Слой 1" xmlns="http://www.w3.org/2000/svg" viewBox="0 0 60 60"><defs><style>.cls-1{fill:#ef5625;}.cls-2{fill:#6d1511;}</style></defs><title>cogc-03</title><circle class="cls-1" cx="30" cy="30" r="30"/><path class="cls-2" d="M286.26,406.16l-0.52.43a19,19,0,0,0-4.84,6l-0.17.33,5.92,8.59-5.93,8.41,0.17,0.34a19,19,0,0,0,4.81,6l0.52,0.43,10.67-15.13-10.63-15.42h0ZM286,434.87a17.68,17.68,0,0,1-3.8-4.84l6-8.5-6-8.69A17.78,17.78,0,0,1,286,408l9.35,13.57Zm30.71-13.56,0-.67a19.22,19.22,0,0,0-1.9-7.18l-0.07-.14-0.22-.43-12.43,0-6.94-10-0.38.06a19.21,19.21,0,0,0-5.55,1.74c-0.54.26-1.08,0.56-1.61,0.89l-0.56.34,10.64,15.41,19.06,0h0Zm-19,.53L287,437.27l0.56,0.34a17.94,17.94,0,0,0,1.61.89,19.32,19.32,0,0,0,5.55,1.73l0.38,0.06,6.92-10,12.43,0,0.22-.43,0.08-.15a19.2,19.2,0,0,0,1.88-7.18l0-.67Z" transform="translate(-268 -391.56)"/></svg>