<?xml version="1.0" encoding="utf-8"?>
<!-- Generator: Adobe Illustrator 19.1.0, SVG Export Plug-In . SVG Version: 6.00 Build 0)  -->
<svg version="1.1" id="Layer_1" xmlns="http://www.w3.org/2000/svg" xmlns:xlink="http://www.w3.org/1999/xlink" x="0px" y="0px"
	 width="100px" height="100px" viewBox="0 0 100 100" style="enable-background:new 0 0 100 100;" xml:space="preserve">
<style type="text/css">
	.st0{clip-path:url(#SVGID_2_);fill:#855CA7;}
	.st1{clip-path:url(#SVGID_2_);}
	.st2{fill:#412356;}
	.st3{fill:#563072;}
	.st4{fill:#FFFFFF;}
	.st5{fill:#855CA7;}
</style>
<g>
	<defs>
		<circle id="SVGID_1_" cx="50" cy="50" r="50"/>
	</defs>
	<clipPath id="SVGID_2_">
		<use xlink:href="#SVGID_1_"  style="overflow:visible;"/>
	</clipPath>
	<circle class="st0" cx="50" cy="50" r="50"/>
	<g class="st1">
		<path class="st2" d="M196,29.3c0,5.9-4.3,5.9-6.8,5.9h-23.6c-3.7,0-4.7,1-4.7,4.6V51h-2V39.8c0-4.7,1.9-6.6,6.7-6.6h23.6
			c3,0,4.8-0.2,4.8-3.9V16h2V29.3z"/>
		<path class="st3" d="M64,123.5H52.2v-2H64c2.1,0,4.1-0.6,4.1-4.6V56.8c0-6.8,5.9-6.8,8.2-6.8h46.7v2H76.2c-3.7,0-6.2,0.8-6.2,4.8
			v60.1C70,121.3,68,123.5,64,123.5z"/>
		<path class="st3" d="M51.2,11.9V-1.8c0-3.7,2.4-5.9,6.4-5.9H81c4.2,0,4.8-1.3,4.8-5.6v-10h2v10c0,2.1-0.2,4.2-1.3,5.6
			c-1.1,1.4-2.8,2-5.6,2H57.6c-2,0-4.4,0.7-4.4,3.9v13.7H51.2z"/>
		<polygon class="st3" points="52.2,87.4 16.1,87.4 16.1,50.8 18.1,50.8 18.1,85.4 52.2,85.4 		"/>
		<circle class="st4" cx="17.1" cy="15.7" r="5.8"/>
		<g>
			<circle class="st5" cx="52.2" cy="15.7" r="5.8"/>
			<path class="st3" d="M52.2,11.8c2.1,0,3.8,1.7,3.8,3.8s-1.7,3.8-3.8,3.8c-2.1,0-3.8-1.7-3.8-3.8S50.1,11.8,52.2,11.8 M52.2,9.8
				c-3.2,0-5.8,2.6-5.8,5.8s2.6,5.8,5.8,5.8s5.8-2.6,5.8-5.8S55.4,9.8,52.2,9.8L52.2,9.8z"/>
		</g>
		<g>
			<circle class="st5" cx="17.1" cy="50.8" r="5.8"/>
			<path class="st3" d="M17.1,46.9c2.1,0,3.8,1.7,3.8,3.8c0,2.1-1.7,3.8-3.8,3.8s-3.8-1.7-3.8-3.8C13.3,48.6,15,46.9,17.1,46.9
				 M17.1,44.9c-3.2,0-5.8,2.6-5.8,5.8s2.6,5.8,5.8,5.8s5.8-2.6,5.8-5.8S20.3,44.9,17.1,44.9L17.1,44.9z"/>
		</g>
		<circle class="st3" cx="17.1" cy="86.4" r="5.8"/>
		<g>
			<circle class="st5" cx="52.2" cy="86.4" r="5.8"/>
			<path class="st3" d="M52.2,82.5c2.1,0,3.8,1.7,3.8,3.8s-1.7,3.8-3.8,3.8c-2.1,0-3.8-1.7-3.8-3.8S50.1,82.5,52.2,82.5 M52.2,80.5
				c-3.2,0-5.8,2.6-5.8,5.8s2.6,5.8,5.8,5.8c3.2,0,5.8-2.6,5.8-5.8S55.4,80.5,52.2,80.5L52.2,80.5z"/>
		</g>
		<circle class="st3" cx="87.8" cy="51" r="5.8"/>
		<circle class="st2" cx="122.9" cy="50.8" r="5.8"/>
		<circle class="st2" cx="159.9" cy="51" r="5.8"/>
		<path class="st4" d="M53.2,50.8h-2l0-14.8c0-0.5,0-0.9-0.3-1.2c-0.3-0.3-0.9-0.5-1.7-0.5H20.4c-0.1,0-0.1,0-0.2,0
			c-0.7,0-2,0.1-3-0.9c-0.7-0.7-1.1-1.7-1.1-3.1V15.7h2v14.7c0,0.6,0.1,1.3,0.5,1.7c0.4,0.4,1.1,0.3,1.6,0.3c0.1,0,0.2,0,0.3,0h28.7
			c1.4,0,2.5,0.4,3.2,1.1c0.9,0.9,0.9,2.1,0.9,2.6l0,0.1V50.8z"/>
		<circle class="st4" cx="52.2" cy="50.8" r="5.8"/>
		<path class="st2" d="M195.2,15.5H184c-4.7,0-6.6-1.9-6.6-6.7v-23.6c0-3-0.2-4.8-3.9-4.8h-42.6c-2.8,0-4.3,0.3-4.9,0.9
			c-0.6,0.6-0.6,2.1-0.6,4.3c0,0.5,0,1,0,1.6v27.3h-2v-27.3c0-0.5,0-1.1,0-1.5c0-2.7-0.1-4.5,1.2-5.7c1-1.1,2.8-1.5,6.3-1.5h42.6
			c5.9,0,5.9,4.3,5.9,6.8V8.8c0,3.7,1,4.7,4.6,4.7h11.2V15.5z"/>
		<path class="st2" d="M160.9,86.6h-2v-10c0-2.1,0.2-4.2,1.3-5.6c1.1-1.4,2.8-2,5.6-2h23.4c2,0,4.4-0.7,4.4-3.9V51.5h2v13.7
			c0,3.7-2.4,5.9-6.4,5.9h-23.4c-4.2,0-4.8,1.3-4.8,5.6V86.6z"/>
		<g>
			<circle class="st3" cx="159.9" cy="86.6" r="5.8"/>
			<path class="st2" d="M159.9,82.8c2.1,0,3.8,1.7,3.8,3.8c0,2.1-1.7,3.8-3.8,3.8s-3.8-1.7-3.8-3.8C156,84.5,157.7,82.8,159.9,82.8
				 M159.9,80.8c-3.2,0-5.8,2.6-5.8,5.8c0,3.2,2.6,5.8,5.8,5.8s5.8-2.6,5.8-5.8C165.7,83.4,163.1,80.8,159.9,80.8L159.9,80.8z"/>
		</g>
		<circle class="st2" cx="124.5" cy="14.5" r="5.8"/>
		<circle class="st2" cx="194.9" cy="51.5" r="5.8"/>
		<circle class="st2" cx="195.2" cy="14.5" r="5.8"/>
		<g>
			<circle class="st3" cx="159.6" cy="-20.6" r="5.8"/>
			<path class="st2" d="M159.6-24.5c2.1,0,3.9,1.7,3.9,3.8s-1.7,3.8-3.9,3.8c-2.1,0-3.8-1.7-3.8-3.8S157.5-24.5,159.6-24.5
				 M159.6-26.5c-3.2,0-5.8,2.6-5.8,5.8s2.6,5.8,5.8,5.8c3.2,0,5.8-2.6,5.8-5.8S162.8-26.5,159.6-26.5L159.6-26.5z"/>
		</g>
		<path class="st2" d="M176.5,89.7c0-1.4,0.4-2.5,1.1-3.2c0.9-0.9,2.1-0.9,2.6-0.9l0.1,0h14.7v2l-14.8,0c-0.5,0-0.9,0-1.2,0.3
			c-0.3,0.3-0.5,0.9-0.5,1.7"/>
		<circle class="st2" cx="194.9" cy="86.6" r="5.8"/>
	</g>
</g>
</svg>
