<svg id="37b8333f-6745-431f-8a0d-bdcc3553ffe3" data-name="Слой 1" xmlns="http://www.w3.org/2000/svg" width="51.8mm" height="42.08mm" viewBox="0 0 146.84 119.28">
  <defs>
    <style>
      .\38 e540990-b47b-4a60-b4ea-de0c21922db4 {
        fill: #eef0f3;
      }
    </style>
  </defs>
  <title>ico-twitter</title>
  <path class="8e540990-b47b-4a60-b4ea-de0c21922db4" d="M371.57,376a60.16,60.16,0,0,1-17.3,4.74,30.25,30.25,0,0,0,13.24-16.65,60.73,60.73,0,0,1-19.14,7.31A30.15,30.15,0,0,0,297,398.84,85.52,85.52,0,0,1,235,367.37a30.16,30.16,0,0,0,9.32,40.21,30.13,30.13,0,0,1-13.64-3.78v0.38a30.15,30.15,0,0,0,24.16,29.54,30.51,30.51,0,0,1-7.94,1.06,28.91,28.91,0,0,1-5.67-.56,30.14,30.14,0,0,0,28.13,20.92A60.44,60.44,0,0,1,231.92,468a64,64,0,0,1-7.18-.41,85.15,85.15,0,0,0,46.17,13.55c55.41,0,85.7-45.9,85.7-85.7l-0.1-3.9A60.15,60.15,0,0,0,371.57,376Z" transform="translate(-224.73 -361.86)"/>
</svg>
