<?xml version="1.0" encoding="UTF-8" standalone="no"?>
<svg width="49px" height="54px" viewBox="0 0 49 54" version="1.1" xmlns="http://www.w3.org/2000/svg" xmlns:xlink="http://www.w3.org/1999/xlink" xmlns:sketch="http://www.bohemiancoding.com/sketch/ns">
    <!-- Generator: Sketch 3.5.2 (25235) - http://www.bohemiancoding.com/sketch -->
    <title>ico-swipe</title>
    <desc>Created with Sketch.</desc>
    <defs></defs>
    <g id="Page-1" stroke="none" stroke-width="1" fill="none" fill-rule="evenodd" sketch:type="MSPage">
        <g id="ico-swipe" sketch:type="MSLayerGroup" fill="#EEF0F3">
            <path d="M43.38,22.14 C42.3805713,22.1334084 41.4068969,22.4567948 40.61,23.06 L40.61,23.06 C40.6235259,21.8306032 40.141122,20.6476129 39.2717546,19.7782454 C38.4023871,18.908878 37.2193968,18.4264741 35.99,18.44 C34.8587447,18.4442857 33.7623774,18.8320684 32.88,19.54 C32.3651929,18.2051916 31.2537876,17.1893633 29.8781899,16.7963354 C28.5025922,16.4033075 27.0222822,16.6786457 25.88,17.54 L25.88,8.31 C25.7868867,6.03930313 24.039395,4.18204 21.7785712,3.95093357 C19.5177475,3.71982714 17.430618,5.18510678 16.88,7.39 L3.69,7.39 L9.6,1.48 L8.31,5.68434189e-14 L0,8.31 L8.31,16.62 L9.78,15.14 L3.69,9.23 L16.61,9.23 L16.61,24.74 C12.92,21.42 8.86,18.83 6.27,21.42 C2.58,25.11 10.33,32.31 16.27,43.2 C20.52,50.77 26.42,53.54 32.33,53.54 C36.4920602,53.5426552 40.484416,51.8904591 43.4274375,48.9474375 C46.3704591,46.004416 48.0226552,42.0120602 48.02,37.85 L48.02,26.74 C48.0282157,25.510541 47.5406943,24.3296322 46.6675608,23.4640256 C45.7944272,22.5984191 44.6093418,22.1211402 43.38,22.14 L43.38,22.14 Z M46.15,30.82 L46.15,37.82 C45.9655707,45.391435 39.871435,51.4855707 32.3,51.67 C25.3,51.67 21.22,47.79 17.9,42.44 C10.7,30.26 5.53,24.72 7.56,22.69 C9.59,20.66 14.56,25.09 18.45,29.15 L18.45,8.28 C18.45,6.75017124 19.6901712,5.51 21.22,5.51 C22.7498288,5.51 23.99,6.75017124 23.99,8.28 L23.99,27.66 L25.88,27.66 L25.88,21.2 C25.88,19.6701712 27.1201712,18.43 28.65,18.43 C30.1798288,18.43 31.42,19.6701712 31.42,21.2 L31.42,25.82 L33.27,25.82 L33.27,23.05 C33.27,21.5201712 34.5101712,20.28 36.04,20.28 C37.5698288,20.28 38.81,21.5201712 38.81,23.05 L38.81,27.67 L40.66,27.67 L40.66,26.74 C40.66,25.2101712 41.9001712,23.97 43.43,23.97 C44.9598288,23.97 46.2,25.2101712 46.2,26.74 L46.2,30.8 L46.2,30.8 L46.15,30.82 Z" id="Shape" sketch:type="MSShapeGroup"></path>
        </g>
    </g>
</svg>