<svg id="577a46b9-4bf3-480a-809b-9c5c178ce6d4" data-name="Слой 1" xmlns="http://www.w3.org/2000/svg" width="15.06mm" height="17.58mm" viewBox="0 0 42.68 49.85">
  <title>ico-hand</title>
  <path d="M289.42,402v15.51c-3.69-3.32-7.75-5.91-10.34-3.32-3.69,3.69,4.06,10.89,10,21.78,4.25,7.57,10.15,10.34,16.06,10.34a15.68,15.68,0,0,0,15.69-15.69V419.58a4.62,4.62,0,0,0-7.38-3.69h0a4.57,4.57,0,0,0-4.62-4.62,5,5,0,0,0-3.14,1.11,4.56,4.56,0,0,0-7-2v-9.23a4.57,4.57,0,0,0-9-.92ZM319,423.64v7a14.2,14.2,0,0,1-13.85,13.85c-7,0-11.08-3.88-14.4-9.23-7.2-12.18-12.37-17.72-10.34-19.75s7,2.4,10.89,6.46V401.12a2.77,2.77,0,1,1,5.54,0V420.5h1.85V414a2.77,2.77,0,1,1,5.54,0v4.62H306v-2.77a2.77,2.77,0,1,1,5.54,0v4.62h1.85v-0.92a2.77,2.77,0,1,1,5.54,0v4.06h0Z" transform="translate(-278.12 -396.5)" style="fill: #eef0f3"/>
</svg>
