<?xml version="1.0" encoding="UTF-8" standalone="no"?>
<svg width="34px" height="34px" viewBox="0 0 34 34" version="1.1" xmlns="http://www.w3.org/2000/svg" xmlns:xlink="http://www.w3.org/1999/xlink">
    <!-- Generator: Sketch 3.6.1 (26313) - http://www.bohemiancoding.com/sketch -->
    <title>ico-close</title>
    <desc>Created with Sketch.</desc>
    <defs></defs>
    <g id="Page-1" stroke="none" stroke-width="1" fill="none" fill-rule="evenodd">
        <path d="M32.17,16.35 L32.17,16.82 L32.67,16.82 L32.67,16.32 L16.82,16.32 L16.32,16.32 L16.32,16.82 L16.32,32.67 L16.82,32.67 L16.82,32.17 L16.35,32.17 L16.35,32.67 L16.85,32.67 L16.85,16.82 L16.85,16.32 L16.35,16.32 L0.5,16.32 L0.5,16.82 L1,16.82 L1,16.35 L0.5,16.35 L0.5,16.85 L16.35,16.85 L16.85,16.85 L16.85,16.35 L16.85,0.5 L16.35,0.5 L16.35,1 L16.82,1 L16.82,0.5 L16.32,0.5 L16.32,16.35 L16.32,16.85 L16.82,16.85 L32.67,16.85 L32.67,16.35 L32.17,16.35 L32.17,16.35 Z M33.17,16.35 L33.17,15.85 L32.67,15.85 L16.82,15.85 L17.32,16.35 L17.32,0.5 L17.32,0 L16.82,0 L16.35,0 L15.85,0 L15.85,0.5 L15.85,16.35 L16.35,15.85 L0.5,15.85 L0,15.85 L0,16.35 L0,16.82 L0,17.32 L0.5,17.32 L16.35,17.32 L15.85,16.82 L15.85,32.67 L15.85,33.17 L16.35,33.17 L16.82,33.17 L17.32,33.17 L17.32,32.67 L17.32,16.82 L16.82,17.32 L32.67,17.32 L33.17,17.32 L33.17,16.82 L33.17,16.35 L33.17,16.35 Z" id="ico-close" fill="#333D3E"></path>
    </g>
</svg>