<?xml version="1.0" encoding="UTF-8" standalone="no"?>
<svg width="37px" height="37px" viewBox="0 0 37 37" version="1.1" xmlns="http://www.w3.org/2000/svg" xmlns:xlink="http://www.w3.org/1999/xlink" xmlns:sketch="http://www.bohemiancoding.com/sketch/ns">
    <!-- Generator: Sketch 3.5.2 (25235) - http://www.bohemiancoding.com/sketch -->
    <title>ico-refresh</title>
    <desc>Created with Sketch.</desc>
    <defs></defs>
    <g id="Page-1" stroke="none" stroke-width="1" fill="none" fill-rule="evenodd" sketch:type="MSPage">
        <g id="ico-refresh" sketch:type="MSLayerGroup" transform="translate(-1.000000, -1.000000)" fill="#EEF0F3">
            <path d="M7.05393255,7.05317383 C12.884472,1.21010876 22.0308708,0.300140951 28.8983674,4.8798887 C35.7658641,9.45963645 38.4412282,18.2532182 35.287966,25.8816871 C32.1347038,33.5101559 24.0312893,37.8482807 15.9345009,36.2424734 C7.83771253,34.6366662 2.00325153,27.5342921 1.99999996,19.279803 C1.92351295,14.6782079 3.75072619,10.2577574 7.04815032,7.05887512 L7.05393255,7.05317383 Z M6.35184968,6.34112488 C2.85614388,9.73236328 0.919056123,14.4186256 1.00006918,19.2883169 C1.00343956,28.0118241 7.17515264,35.52474 15.7399635,37.2233685 C24.3047744,38.921997 32.8765943,34.3331136 36.212126,26.2636928 C39.5476576,18.1942719 36.7176482,8.89239068 29.4531864,4.04791763 C22.1887247,-0.796555428 12.5136323,0.166011676 6.34606745,6.34682617 L6.35184968,6.34112488 Z" id="Shape" sketch:type="MSShapeGroup"></path>
            <path d="M7.74,24.83 L11.04,21.53 C10.0984357,18.5671453 10.942536,15.3268894 13.21,13.2 C15.3108978,10.9523891 18.5145719,10.1087031 21.45,11.03 L20.15,12.24 L25.96,12.24 L25.96,6.43 L24.75,7.64 C22.393031,6.50025402 19.7317414,6.14962298 17.16,6.64 C14.4998371,7.08072333 12.0485446,8.3553954 10.16,10.28 C8.23546865,12.1580821 6.98415652,14.6185273 6.6,17.28 C6.19127917,19.854006 6.58951187,22.4914243 7.74,24.83 L7.74,24.83 Z" id="Shape" sketch:type="MSShapeGroup"></path>
            <path d="M21.32,31.94 C23.9814727,31.5558435 26.4419179,30.3045314 28.32,28.38 C32.1764945,24.5183765 33.1856342,18.6477466 30.84,13.72 L27.54,17.02 C28.3763153,19.9817077 27.5464159,23.1641439 25.3702799,25.3402799 C23.1941439,27.5164159 20.0117077,28.3463153 17.05,27.51 L18.35,26.3 L12.54,26.3 L12.54,32.02 L13.75,30.81 C16.0955169,31.9612196 18.7405313,32.35605 21.32,31.94 L21.32,31.94 Z" id="Shape" sketch:type="MSShapeGroup"></path>
        </g>
    </g>
</svg>