<svg id="Слой_1" data-name="Слой 1" xmlns="http://www.w3.org/2000/svg" viewBox="0 0 75 75"><defs><style>.cls-1{fill:#dddddc;}</style></defs><title>logo-earth</title><path class="cls-1" d="M304.78,431.42c3.75-15.47,3.28-28.12-.23-29.53h0l-0.23,2.34h0c2.58,0.7,2.11,16.41-.7,27.66-2.81,11-9.61,25.08-12,23.91l-0.7,1.87h0.23c3.52,0.94,9.84-10.78,13.59-26.25" transform="translate(-260.25 -383.84)"/><path class="cls-1" d="M309,453.69c-7-.23-15.94-4.22-23.2-11.48-11.48-11.48-15.23-26-8.44-32.81L279,411c-5.86,5.86-3,19.92,7.27,30.23s24.84,13.13,30.47,7.27l1.64,1.64a12.92,12.92,0,0,1-9.38,3.52" transform="translate(-260.25 -383.84)"/><path class="cls-1" d="M309.7,407c4.45,0,8.2,1.41,10.55,4.22l-1.87,1.41c-5.16-6.33-19.69-4.92-31.17,4.45-11.25,9.38-15.23,23.2-9.84,29.53l-1.88,1.41c-6.09-7.27-.94-21.56,11.48-31.88,7.5-5.86,15.94-9.14,22.73-9.14" transform="translate(-260.25 -383.84)"/><path class="cls-1" d="M271.73,434c-1.41-1.64,9.14-7.27,25.55-9.84s27-.47,27,1.41l2.34-.47c-0.94-6.33-28.59-2.11-29.77-1.87s-28.59,4.69-27.66,11h0l2.58-.23h0" transform="translate(-260.25 -383.84)"/><path class="cls-1" d="M320.25,411.27c6.09,7.27,1.41,21.8-11,32.11-12.42,10.08-27.66,12.19-33.75,4.92l1.88-1.41c3.52,5.86,19.22,4.22,30.47-5.16s15.7-23.91,10.55-28.83Z" transform="translate(-260.25 -383.84)"/><path class="cls-1" d="M318.37,450.17l-1.64-1.64c5.86-5.86,2.34-19.22-8.2-29.53-10.31-10.31-23.91-13.83-29.53-8l-1.64-1.64c6.8-6.8,21.8-3.28,33,8s14.77,26.25,8,32.81" transform="translate(-260.25 -383.84)"/><path class="cls-1" d="M299.16,436.81c3.52-.47,28.36-5.16,27.42-11.48h0l-2.34.47h0c0,1.87-9.37,6.33-25.78,8.91s-25.78,1.41-26.72-.47l-2.34.47c1.17,6.09,25.31,2.81,29.77,2.11" transform="translate(-260.25 -383.84)"/><path class="cls-1" d="M296.34,394.86v-9.37a1.64,1.64,0,0,1,3.28,0v9.61a1.6,1.6,0,0,1-1.64,1.64,2,2,0,0,1-1.64-1.87" transform="translate(-260.25 -383.84)"/><path class="cls-1" d="M313,400a1.58,1.58,0,0,1-.94-1.41,0.86,0.86,0,0,1,.23-0.7l4.22-8.44a1.29,1.29,0,0,1,1.41-.94,0.86,0.86,0,0,1,.7.23,1.58,1.58,0,0,1,.94,1.41,0.86,0.86,0,0,1-.23.7l-4.22,8.67a2,2,0,0,1-1.41.7A0.86,0.86,0,0,1,313,400" transform="translate(-260.25 -383.84)"/><path class="cls-1" d="M282,400a0.86,0.86,0,0,1-.7.23,1.58,1.58,0,0,1-1.41-.94l-4.22-8.67c0-.23-0.23-0.47-0.23-0.7a1.46,1.46,0,0,1,.94-1.41h0.7a1.46,1.46,0,0,1,1.41.94l4.22,8.44c0,0.23.23,0.47,0.23,0.7A2.15,2.15,0,0,1,282,400" transform="translate(-260.25 -383.84)"/><path class="cls-1" d="M324.23,409.62a0.86,0.86,0,0,1-.23-0.7,2,2,0,0,1,.7-1.41l8.2-5.16a0.86,0.86,0,0,1,.7-0.23,2,2,0,0,1,1.41.7,1.77,1.77,0,0,1,.23.94,2,2,0,0,1-.7,1.41l-8.2,4.92a0.86,0.86,0,0,1-.7.23,2,2,0,0,1-1.41-.7" transform="translate(-260.25 -383.84)"/><path class="cls-1" d="M271.27,409.62a1.42,1.42,0,0,1-1.41.7,0.86,0.86,0,0,1-.7-0.23l-8.2-4.92a2,2,0,0,1-.7-1.41,0.86,0.86,0,0,1,.23-0.7,1.42,1.42,0,0,1,1.41-.7,0.86,0.86,0,0,1,.7.23l8,4.92a1.42,1.42,0,0,1,.7,1.41,0.75,0.75,0,0,1,0,.7" transform="translate(-260.25 -383.84)"/><path class="cls-1" d="M313,425.56A3.52,3.52,0,1,1,316.5,422a3.6,3.6,0,0,1-3.52,3.52" transform="translate(-260.25 -383.84)"/><path class="cls-1" d="M309.23,446A3.75,3.75,0,1,1,313,442.2a3.7,3.7,0,0,1-3.75,3.75" transform="translate(-260.25 -383.84)"/><path class="cls-1" d="M292.83,428.37a4.45,4.45,0,1,1,4.45-4.45,4.31,4.31,0,0,1-4.45,4.45" transform="translate(-260.25 -383.84)"/><path class="cls-1" d="M291.66,455.56c-3.28-1.64-1.41-16.17,1.41-27.19s8.2-24.61,11.25-24.14l0.23-2.34c-3.52-1.41-10.08,8.67-14.06,26-4.22,18.75-4,28.13.47,29.53l0.7-1.87h0" transform="translate(-260.25 -383.84)"/><path class="cls-1" d="M298,403.3a26.6,26.6,0,1,0,26.72,26.48A26.71,26.71,0,0,0,298,403.3m0,55.55A29.06,29.06,0,1,1,327,429.78c-0.23,15.94-13.13,29.06-29.06,29.06" transform="translate(-260.25 -383.84)"/></svg>