<svg id="Слой_1" data-name="Слой 1" xmlns="http://www.w3.org/2000/svg" viewBox="0 0 213.01 49.61"><defs><style>.cls-1{fill:#eef0f3;}.cls-2{fill:#1c3749;}.cls-3{fill:#06b29e;}.cls-4{fill:#6ba3d7;}.cls-5{fill:#919190;}</style></defs><title>logo-remux</title><path class="cls-1" d="M253.3,410.87h1.89v19.89H253.3V410.87Z" transform="translate(-190.92 -396.24)"/><path class="cls-1" d="M257.55,410.87H266c3.34,0,6.38,1.17,6.38,4.88a4.52,4.52,0,0,1-3.45,4.46v0.06a4.66,4.66,0,0,1,4.21,4.85c0,1.89-.67,5.66-7.13,5.66h-8.41V410.87Zm1.89,8.72H266c3,0,4.49-1.5,4.49-3.37,0-2.48-1.5-3.73-4.49-3.73h-6.52v7.1Zm0,9.56H266c2.81,0,5.24-.86,5.24-4.1,0-2.56-1.89-3.84-5.24-3.84h-6.52v7.94Z" transform="translate(-190.92 -396.24)"/><path class="cls-1" d="M274.91,410.87h2.79l6.88,17.44,6.85-17.44h2.79v19.89h-1.89V413.57h-0.06l-6.8,17.19h-1.78l-6.83-17.19H276.8v17.19h-1.89V410.87Z" transform="translate(-190.92 -396.24)"/><path class="cls-1" d="M302.54,410.86h9.36c3.79,0,6.35,1.23,6.35,4.93a4.32,4.32,0,0,1-2.7,4.15,4.83,4.83,0,0,1,3.65,5c0,4-3.43,5.77-7,5.77h-9.64V410.86Zm4.37,8.05h4.43c1.56,0,2.67-.7,2.67-2.37,0-1.87-1.45-2.28-3-2.28h-4.1v4.65Zm0,8.44h4.68c1.7,0,3.23-.56,3.23-2.62s-1.25-2.84-3.15-2.84h-4.76v5.46Z" transform="translate(-190.92 -396.24)"/><path class="cls-1" d="M321.13,410.86h4v19.89h-4V410.86Z" transform="translate(-190.92 -396.24)"/><path class="cls-1" d="M340.93,430.75h-3.76v-2h-0.08a5.07,5.07,0,0,1-4.4,2.4c-4.21,0-5.27-2.37-5.27-5.93v-8.86h4v8.13c0,2.37.67,3.54,2.54,3.54,2.15,0,3.06-1.2,3.06-4.12v-7.55h4v14.4Z" transform="translate(-190.92 -396.24)"/><path class="cls-1" d="M346.74,424.51c0.11,2.54,1.31,3.65,3.54,3.65a3.26,3.26,0,0,0,3.12-1.87h3.48a6.45,6.45,0,0,1-6.74,4.85c-4.54,0-7.35-3.12-7.35-7.58s3-7.61,7.35-7.61c4.9,0,7.3,4.12,7,8.55H346.74Zm6.44-2.51c-0.36-2-1.23-3.06-3.15-3.06a3.1,3.1,0,0,0-3.29,3.06h6.44Z" transform="translate(-190.92 -396.24)"/><path class="cls-1" d="M359.18,416.35h3.73v2H363a5.17,5.17,0,0,1,4.4-2.34,4.22,4.22,0,0,1,4.21,2.4,5.27,5.27,0,0,1,4.35-2.4c3.06,0,5.27,1.42,5.27,5.15v9.64h-4v-8.16c0-1.92-.17-3.51-2.42-3.51s-2.65,1.87-2.65,3.65v8h-4v-8.08c0-1.67.11-3.59-2.4-3.59-0.78,0-2.67.5-2.67,3.32v8.36h-4v-14.4Z" transform="translate(-190.92 -396.24)"/><path class="cls-1" d="M387.55,414.12h-4v-3.26h4v3.26Zm-4,2.23h4v14.4h-4v-14.4Z" transform="translate(-190.92 -396.24)"/><path class="cls-1" d="M394.15,423.17l-4.74-6.83h4.51l2.54,3.76,2.51-3.76h4.37l-4.74,6.74,5.32,7.66h-4.51l-3-4.54-3,4.54H389Z" transform="translate(-190.92 -396.24)"/><path class="cls-2" d="M206,421.05a13.55,13.55,0,0,0,4,9.61q0.41,0.41.85,0.78V410.65q-0.44.37-.86,0.79A13.55,13.55,0,0,0,206,421.05Z" transform="translate(-190.92 -396.24)"/><path class="cls-3" d="M229.19,411.44a13.61,13.61,0,0,0-14.25-3.17l18,10.42A13.55,13.55,0,0,0,229.19,411.44Z" transform="translate(-190.92 -396.24)"/><path class="cls-3" d="M213.26,409h0l6.63,11.48h13.28q0-.22,0-0.44l-19.47-11.25Z" transform="translate(-190.92 -396.24)"/><path class="cls-4" d="M233.16,421.6H219.87l-6.61,11.49h0l0.39,0.2L233.13,422Q233.15,421.82,233.16,421.6Z" transform="translate(-190.92 -396.24)"/><path class="cls-4" d="M224.87,433.58a13.59,13.59,0,0,0,8.1-10.17l-18,10.42A13.65,13.65,0,0,0,224.87,433.58Z" transform="translate(-190.92 -396.24)"/><path class="cls-2" d="M218.91,421h0l-6.61-11.48h0l-0.38.25v22.47l0.37,0.24h0Z" transform="translate(-190.92 -396.24)"/><polygon class="cls-5" points="28.95 25.36 28.95 25.36 28.95 25.36 28.95 25.36"/><path class="cls-3" d="M219.58,406.41a14.64,14.64,0,0,1,14.54,12.94q0,0.3.06,0.61h0l6.7-11.61-7-12.12h-14l-6.72,11.65,0.62-.29A14.59,14.59,0,0,1,219.58,406.41Z" transform="translate(-190.92 -396.24)"/><polygon class="cls-5" points="22.52 38.44 22.52 38.44 22.26 37.98 22.26 37.98 22.52 38.44"/><path class="cls-4" d="M234.18,422.1h0q0,0.32-.06.64a14.65,14.65,0,0,1-20.35,11.75l-0.59-.27,6.71,11.63h14l7-12.12Z" transform="translate(-190.92 -396.24)"/><path class="cls-2" d="M211.4,408.91H197.92l-7,12.12,7,12.12h13.41l-0.52-.37a14.64,14.64,0,0,1,0-23.47Z" transform="translate(-190.92 -396.24)"/></svg>