<svg id="Слой_1" data-name="Слой 1" xmlns="http://www.w3.org/2000/svg" viewBox="0 0 200 15.34"><defs><style>.cls-1{fill:#eef0f3;}.cls-2{fill:#aa363b;}</style></defs><title>logo-softlayer</title><path class="cls-1" d="M201.81,416v3.3h10.43c3.14,0,4.18.74,4.18,3.62V425c0,2.84-1,3.6-4,3.62H201.76c-3,0-4-.76-4-3.49V425l0-1h3.41v1.81H213v-3.51H202.55c-3.14,0-4.15-.74-4.15-3.62v-1.69c0-2.88,1-3.62,4.15-3.62H212c3,0,4.14.71,4.14,3.36v1.08h-3.43V416H201.81Z" transform="translate(-197.73 -413.3)"/><path class="cls-1" d="M237,416H224.2v9.71H237V416h0Zm-12.57-2.73h12.31c3.14,0,4.15.74,4.15,3.62V425c0,2.88-1,3.62-4.15,3.62H224.46c-3.14,0-4.15-.74-4.15-3.62v-8.08c0-2.88,1-3.62,4.15-3.62h0Z" transform="translate(-197.73 -413.3)"/><polygon class="cls-1" points="47.57 0.01 64.48 0.01 64.48 2.68 51.46 2.68 51.46 6.72 58.49 6.72 58.49 9.51 51.46 9.51 51.46 15.34 47.57 15.34 47.57 0.01 47.57 0.01"/><polygon class="cls-1" points="79.38 15.34 75.5 15.34 75.5 2.74 67.82 2.74 67.82 0.01 87.09 0.01 87.09 2.74 79.38 2.74 79.38 15.34 79.38 15.34"/><polygon class="cls-1" points="89.7 0.01 93.59 0.01 93.59 12.45 106.12 12.45 106.12 15.34 89.7 15.34 89.7 0.01 89.7 0.01"/><path class="cls-1" d="M321.14,422.51l-3.59-6.24-3.73,6.24h7.32Zm-5.34-9.21h3.76l9.58,15.33h-4.37l-2-3.36H312.17l-1.94,3.36h-3.89l9.46-15.33h0Z" transform="translate(-197.73 -413.3)"/><polygon class="cls-1" points="135.5 8.47 126.83 0.01 132 0.01 137.74 5.89 143.5 0.01 148.07 0.01 139.42 8.38 139.42 15.34 135.5 15.34 135.5 8.47 135.5 8.47"/><path class="cls-1" d="M373.27,420.23v-4.28H382c1.2,0,1.75.21,1.75,1.22V419c0,1-.55,1.22-1.75,1.22h-8.74Zm-3.82,8.41h3.82v-5.79H377l6.73,5.79h5.57l-7.71-5.79h2.2c2.56,0,3.76-.83,3.76-3v-3.59c0-2.14-1.2-3-3.76-3H369.44v15.33h0Z" transform="translate(-197.73 -413.3)"/><polygon class="cls-2" points="167.87 2.84 150.76 2.84 150.76 0.02 167.87 0.02 167.87 2.84 167.87 2.84"/><polygon class="cls-1" points="167.87 9.08 150.76 9.08 150.76 6.25 167.87 6.25 167.87 9.08 167.87 9.08"/><polygon class="cls-2" points="167.87 15.32 150.76 15.32 150.76 12.5 167.87 12.5 167.87 15.32 167.87 15.32"/><path class="cls-1" d="M397.73,413.3v3.57h-0.82v-1.94c0-.16,0-0.33,0-0.52V414l0,0.1-0.09.24c-0.08.22-.15,0.38-0.19,0.49l-0.88,2H395l-0.89-2c-0.05-.13-0.12-0.29-0.19-0.49l-0.09-.24,0-.1v0.1c0,0.36,0,.61,0,0.77v1.94H393V413.3h1.28l0.72,1.65c0.05,0.11.11,0.27,0.19,0.49l0.09,0.24,0.07,0.19,0.07-.18c0.12-.35.21-0.59,0.27-0.73l0.71-1.65h1.3Zm-6.19.64v2.93h-0.82v-2.93h-1.15V413.3h3.15v0.64h-1.18Z" transform="translate(-197.73 -413.3)"/></svg>